<svg width="30" height="30" viewBox="0 0 30 30" fill="none" xmlns="http://www.w3.org/2000/svg">
<path opacity="0.4" d="M14.1501 7.13242C11.5996 5.3452 8.02019 4.5353 5.35597 4.23424C4.0374 4.08524 2.96082 5.18632 2.96082 6.54482V20.0736C2.96082 21.4321 4.0374 22.5336 5.35597 22.6826C8.02019 22.9836 11.5996 23.7935 14.1501 25.5807C14.3952 25.7525 14.6829 25.8384 14.9706 25.8384V7.39003C14.6829 7.39003 14.3952 7.30416 14.1501 7.13242Z" fill="#725DFF"/>
<path fill-rule="evenodd" clip-rule="evenodd" d="M5.6737 10.3934C5.74984 9.90178 6.21008 9.56498 6.70168 9.64111C8.26629 9.88342 10.0283 10.2884 11.6926 10.932C12.1566 11.1114 12.3873 11.633 12.2079 12.097C12.0284 12.561 11.5069 12.7917 11.0429 12.6122C9.53127 12.0277 7.90171 11.6499 6.42597 11.4214C5.93437 11.3452 5.59757 10.885 5.6737 10.3934Z" fill="#725DFF"/>
<path fill-rule="evenodd" clip-rule="evenodd" d="M5.6737 15.1973C5.74984 14.7057 6.21008 14.3689 6.70168 14.4451C7.49401 14.5678 8.33463 14.7318 9.18614 14.9467C9.66848 15.0684 9.96085 15.558 9.83916 16.0404C9.71746 16.5227 9.22779 16.8151 8.74544 16.6934C7.95472 16.4939 7.16967 16.3405 6.42597 16.2253C5.93437 16.1492 5.59757 15.6889 5.6737 15.1973Z" fill="#725DFF"/>
<path d="M15.7911 7.13242C18.3416 5.3452 21.921 4.5353 24.5852 4.23424C25.9038 4.08524 26.9804 5.18632 26.9804 6.54482V20.0736C26.9804 21.4321 25.9038 22.5336 24.5852 22.6826C21.921 22.9836 18.3416 23.7935 15.7911 25.5807C15.546 25.7525 15.2583 25.8384 14.9706 25.8384V7.39003C15.2583 7.39003 15.546 7.30416 15.7911 7.13242Z" fill="#725DFF"/>
</svg>
