<svg width="30" height="30" viewBox="0 0 30 30" fill="none" xmlns="http://www.w3.org/2000/svg">
<ellipse opacity="0.4" cx="14.6766" cy="14.9117" rx="7.20588" ry="7.20588" fill="#725DFF"/>
<path fill-rule="evenodd" clip-rule="evenodd" d="M14.3762 2.90186C14.8737 2.90186 15.2769 3.30513 15.2769 3.80259V5.00357C15.2769 5.50103 14.8737 5.90431 14.3762 5.90431C13.8787 5.90431 13.4755 5.50103 13.4755 5.00357V3.80259C13.4755 3.30513 13.8787 2.90186 14.3762 2.90186Z" fill="#725DFF"/>
<path fill-rule="evenodd" clip-rule="evenodd" d="M14.3761 23.8926C14.8735 23.8926 15.2768 24.2959 15.2768 24.7933V25.9943C15.2768 26.4918 14.8735 26.895 14.3761 26.895C13.8786 26.895 13.4753 26.4918 13.4753 25.9943V24.7933C13.4753 24.2959 13.8786 23.8926 14.3761 23.8926Z" fill="#725DFF"/>
<path fill-rule="evenodd" clip-rule="evenodd" d="M26.5374 8.15628C26.7861 8.5871 26.6385 9.13798 26.2077 9.38671L25.1676 9.9872C24.7368 10.2359 24.1859 10.0883 23.9372 9.65751C23.6885 9.22669 23.8361 8.67581 24.2669 8.42708L25.307 7.82659C25.7378 7.57786 26.2887 7.72547 26.5374 8.15628Z" fill="#725DFF"/>
<path fill-rule="evenodd" clip-rule="evenodd" d="M5.39983 19.5657C5.64856 19.9965 5.50095 20.5474 5.07014 20.7961L4.03006 21.3966C3.59924 21.6454 3.04836 21.4977 2.79963 21.0669C2.5509 20.6361 2.69851 20.0852 3.12932 19.8365L4.1694 19.236C4.60022 18.9873 5.1511 19.1349 5.39983 19.5657Z" fill="#725DFF"/>
<path fill-rule="evenodd" clip-rule="evenodd" d="M2.81511 8.15598C3.06385 7.72516 3.61473 7.57755 4.04554 7.82628L5.08562 8.42677C5.51644 8.6755 5.66404 9.22639 5.41531 9.6572C5.16658 10.088 4.6157 10.2356 4.18489 9.98689L3.14481 9.3864C2.71399 9.13767 2.56638 8.58679 2.81511 8.15598Z" fill="#725DFF"/>
<path fill-rule="evenodd" clip-rule="evenodd" d="M23.9373 19.5656C24.186 19.1348 24.7369 18.9872 25.1677 19.236L26.2078 19.8364C26.6386 20.0852 26.7862 20.6361 26.5375 21.0669C26.2888 21.4977 25.7379 21.6453 25.3071 21.3966L24.267 20.7961C23.8362 20.5473 23.6886 19.9965 23.9373 19.5656Z" fill="#725DFF"/>
</svg>
