<svg width="30" height="30" viewBox="0 0 30 30" fill="none" xmlns="http://www.w3.org/2000/svg">
<path fill-rule="evenodd" clip-rule="evenodd" d="M16.2242 22.2305V27.0391C16.2242 27.5366 15.8209 27.9399 15.3235 27.9399C14.826 27.9399 14.4227 27.5366 14.4227 27.0391V22.2305H16.2242Z" fill="#725DFF"/>
<path opacity="0.4" d="M4.51465 6.62256H26.1323V19.8333C26.1323 21.1599 25.0569 22.2353 23.7303 22.2353H6.91661C5.59004 22.2353 4.51465 21.1599 4.51465 19.8333V6.62256Z" fill="#725DFF"/>
<path d="M3.31372 5.42149C3.31372 4.09493 4.38912 3.01953 5.71568 3.01953H24.9314C26.2579 3.01953 27.3333 4.09493 27.3333 5.42149C27.3333 6.74806 26.2579 7.82345 24.9314 7.82345H5.71568C4.38912 7.82345 3.31372 6.74806 3.31372 5.42149Z" fill="#725DFF"/>
<path fill-rule="evenodd" clip-rule="evenodd" d="M20.591 11.8553C21.0176 12.1112 21.1559 12.6645 20.9 13.0911L19.6002 15.2574C18.5104 17.0737 15.9436 17.2464 14.6203 15.5923C14.0814 14.9186 13.0358 14.9889 12.5919 15.7288L11.2921 17.895C11.0362 18.3216 10.4829 18.4599 10.0563 18.204C9.62977 17.948 9.49145 17.3947 9.74739 16.9682L11.0472 14.8019C12.137 12.9856 14.7038 12.8129 16.027 14.467C16.566 15.1407 17.6116 15.0704 18.0555 14.3305L19.3552 12.1643C19.6112 11.7377 20.1645 11.5994 20.591 11.8553Z" fill="#725DFF"/>
</svg>
