<svg width="30" height="30" viewBox="0 0 30 30" fill="none" xmlns="http://www.w3.org/2000/svg">
<circle opacity="0.4" cx="15.3235" cy="14.9117" r="12.0098" fill="#725DFF"/>
<path fill-rule="evenodd" clip-rule="evenodd" d="M12.3893 10.1937C12.5837 9.07738 12.8439 8.07402 13.1532 7.22346C13.5054 6.25495 13.9066 5.52511 14.3136 5.05173C14.7227 4.57587 15.0667 4.43502 15.3237 4.43502C15.5808 4.43502 15.9247 4.57587 16.3338 5.05173C16.7408 5.52511 17.1421 6.25495 17.4943 7.22346C17.8036 8.07402 18.0638 9.07738 18.2581 10.1937C17.3179 10.104 16.3343 10.0566 15.3237 10.0566C14.3131 10.0566 13.3296 10.104 12.3893 10.1937ZM10.8032 10.3911C11.0168 9.01255 11.3261 7.76167 11.7123 6.69952C12.1 5.63341 12.5798 4.71672 13.151 4.05223C13.7202 3.39023 14.4518 2.90186 15.3237 2.90186C16.1957 2.90186 16.9273 3.39023 17.4964 4.05223C18.0677 4.71672 18.5474 5.63341 18.9351 6.69952C19.3214 7.76167 19.6307 9.01255 19.8443 10.3911C21.2228 10.6046 22.4737 10.914 23.5358 11.3002C24.6019 11.6879 25.5186 12.1676 26.1831 12.7389C26.8451 13.3081 27.3335 14.0397 27.3335 14.9116C27.3335 15.7836 26.8451 16.5152 26.1831 17.0843C25.5186 17.6556 24.6019 18.1353 23.5358 18.523C22.4737 18.9093 21.2228 19.2186 19.8443 19.4322C19.6307 20.8107 19.3214 22.0616 18.9351 23.1237C18.5474 24.1898 18.0677 25.1065 17.4964 25.771C16.9273 26.433 16.1957 26.9214 15.3237 26.9214C14.4518 26.9214 13.7202 26.433 13.151 25.771C12.5798 25.1065 12.1 24.1898 11.7123 23.1237C11.3261 22.0616 11.0168 20.8107 10.8032 19.4322C9.42466 19.2186 8.17378 18.9093 7.11163 18.523C6.04552 18.1353 5.12883 17.6556 4.46434 17.0843C3.80233 16.5152 3.31396 15.7836 3.31396 14.9116C3.31396 14.0397 3.80233 13.3081 4.46434 12.7389C5.12883 12.1676 6.04552 11.6879 7.11163 11.3002C8.17378 10.914 9.42466 10.6046 10.8032 10.3911ZM10.6058 17.846C9.48948 17.6517 8.48613 17.3914 7.63557 17.0822C6.66706 16.73 5.93722 16.3287 5.46384 15.9217C4.98798 15.5126 4.84713 15.1686 4.84713 14.9116C4.84713 14.6546 4.98798 14.3106 5.46384 13.9015C5.93722 13.4945 6.66706 13.0933 7.63557 12.7411C8.48613 12.4318 9.48948 12.1716 10.6058 11.9772C10.5161 12.9175 10.4687 13.901 10.4687 14.9116C10.4687 15.9222 10.5161 16.9058 10.6058 17.846ZM12.1694 18.066C12.0608 17.0714 12.0019 16.0126 12.0019 14.9116C12.0019 13.8106 12.0608 12.7518 12.1694 11.7573C13.1639 11.6487 14.2227 11.5898 15.3237 11.5898C16.4247 11.5898 17.4836 11.6487 18.4781 11.7573C18.5866 12.7518 18.6456 13.8106 18.6456 14.9116C18.6456 16.0126 18.5866 17.0714 18.4781 18.066C17.4836 18.1745 16.4247 18.2335 15.3237 18.2335C14.2227 18.2335 13.1639 18.1745 12.1694 18.066ZM12.3893 19.6296C12.5837 20.7459 12.8439 21.7492 13.1532 22.5998C13.5054 23.5683 13.9066 24.2981 14.3136 24.7715C14.7227 25.2474 15.0667 25.3882 15.3237 25.3882C15.5808 25.3882 15.9247 25.2474 16.3338 24.7715C16.7408 24.2981 17.1421 23.5683 17.4943 22.5998C17.8036 21.7492 18.0638 20.7459 18.2581 19.6296C17.3179 19.7193 16.3343 19.7666 15.3237 19.7666C14.3131 19.7666 13.3296 19.7193 12.3893 19.6296ZM20.0417 17.846C21.158 17.6517 22.1613 17.3914 23.0119 17.0822C23.9804 16.73 24.7102 16.3287 25.1836 15.9217C25.6595 15.5126 25.8003 15.1686 25.8003 14.9116C25.8003 14.6546 25.6595 14.3106 25.1836 13.9015C24.7102 13.4945 23.9804 13.0933 23.0119 12.7411C22.1613 12.4318 21.158 12.1716 20.0417 11.9772C20.1314 12.9175 20.1787 13.901 20.1787 14.9116C20.1787 15.9222 20.1314 16.9058 20.0417 17.846Z" fill="#725DFF"/>
</svg>
