<svg width="30" height="30" viewBox="0 0 30 30" fill="none" xmlns="http://www.w3.org/2000/svg">
<path d="M18.1772 26.0344L15.0395 16.6213C14.7015 15.6072 15.6663 14.6424 16.6803 14.9804L26.0935 18.1182C27.2762 18.5124 27.2762 20.1852 26.0935 20.5794L22.6176 21.7381C22.2302 21.8672 21.9263 22.1711 21.7971 22.5585L20.6385 26.0344C20.2443 27.2171 18.5715 27.2171 18.1772 26.0344Z" fill="#725DFF"/>
<path opacity="0.4" fill-rule="evenodd" clip-rule="evenodd" d="M14.9706 9.80757C12.1516 9.80757 9.86641 12.0928 9.86641 14.9117C9.86641 17.0537 11.1861 18.8896 13.0601 19.6466C13.5213 19.8329 13.7442 20.3579 13.5579 20.8191C13.3716 21.2804 12.8466 21.5032 12.3853 21.3169C9.8538 20.2943 8.06494 17.813 8.06494 14.9117C8.06494 11.0979 11.1567 8.0061 14.9706 8.0061C17.8718 8.0061 20.3531 9.79497 21.3758 12.3265C21.5621 12.7878 21.3392 13.3127 20.878 13.499C20.4167 13.6854 19.8917 13.4625 19.7054 13.0012C18.9484 11.1272 17.1125 9.80757 14.9706 9.80757Z" fill="#725DFF"/>
<path opacity="0.4" fill-rule="evenodd" clip-rule="evenodd" d="M14.9707 3.80245C8.83535 3.80245 3.86165 8.77615 3.86165 14.9115C3.86165 21.0155 8.78474 25.9698 14.8768 26.0202C15.3742 26.0243 15.7741 26.4309 15.77 26.9284C15.7659 27.4258 15.3593 27.8257 14.8619 27.8216C7.78159 27.763 2.06018 22.0055 2.06018 14.9115C2.06018 7.78122 7.84043 2.00098 14.9707 2.00098C22.0647 2.00098 27.8222 7.72239 27.8808 14.8027C27.8849 15.3001 27.485 15.7067 26.9876 15.7108C26.4901 15.7149 26.0835 15.315 26.0794 14.8176C26.029 8.72554 21.0747 3.80245 14.9707 3.80245Z" fill="#725DFF"/>
</svg>
