<svg width="30" height="30" viewBox="0 0 30 30" fill="none" xmlns="http://www.w3.org/2000/svg">
<path opacity="0.4" d="M2.66675 16.2303C2.66675 14.9038 3.74214 13.8284 5.06871 13.8284H24.2844C25.611 13.8284 26.6864 14.9038 26.6864 16.2303V21.0343C26.6864 23.6874 24.5356 25.8382 21.8824 25.8382H7.47067C4.81754 25.8382 2.66675 23.6874 2.66675 21.0343V16.2303Z" fill="#725DFF"/>
<path d="M5.0686 11.4266C5.0686 10.1001 6.144 9.02466 7.47056 9.02466H21.8823C23.2089 9.02466 24.2843 10.1001 24.2843 11.4266V13.8286H5.0686V11.4266Z" fill="#725DFF"/>
<path opacity="0.4" d="M7.47058 6.62266C7.47058 5.2961 8.54598 4.2207 9.87254 4.2207H19.4804C20.807 4.2207 21.8823 5.2961 21.8823 6.62266V9.02463H7.47058V6.62266Z" fill="#725DFF"/>
<path fill-rule="evenodd" clip-rule="evenodd" d="M11.3738 17.4315C11.3738 16.934 11.7771 16.5308 12.2745 16.5308H17.0784C17.5759 16.5308 17.9792 16.934 17.9792 17.4315C17.9792 17.929 17.5759 18.3322 17.0784 18.3322H12.2745C11.7771 18.3322 11.3738 17.929 11.3738 17.4315Z" fill="#725DFF"/>
</svg>
