<svg width="30" height="30" viewBox="0 0 30 30" fill="none" xmlns="http://www.w3.org/2000/svg">
<path opacity="0.4" d="M15.8522 6.50501L15.0295 7.34873L14.2067 6.50502C11.6475 3.88053 7.49826 3.88053 4.93906 6.50502C2.44859 9.05903 2.37206 13.175 4.76579 15.8246L11.643 23.4366C13.47 25.4589 16.5889 25.4589 18.4159 23.4366L25.2931 15.8245C27.6868 13.175 27.6103 9.05901 25.1199 6.505C22.5607 3.88051 18.4114 3.88052 15.8522 6.50501Z" fill="#725DFF"/>
<path fill-rule="evenodd" clip-rule="evenodd" d="M20.1337 8.30625C20.1337 7.80879 20.5369 7.40552 21.0344 7.40552C22.8584 7.40552 24.3371 8.88418 24.3371 10.7082C24.3371 11.2057 23.9338 11.6089 23.4364 11.6089C22.9389 11.6089 22.5356 11.2057 22.5356 10.7082C22.5356 9.87911 21.8635 9.20699 21.0344 9.20699C20.5369 9.20699 20.1337 8.80372 20.1337 8.30625Z" fill="#725DFF"/>
</svg>
