<svg width="30" height="30" viewBox="0 0 30 30" fill="none" xmlns="http://www.w3.org/2000/svg">
<path fill-rule="evenodd" clip-rule="evenodd" d="M15.0294 20.1335C15.5269 20.1335 15.9302 20.5368 15.9302 21.0343V25.2377H18.6324C19.1298 25.2377 19.5331 25.641 19.5331 26.1384C19.5331 26.6359 19.1298 27.0392 18.6324 27.0392H11.4265C10.929 27.0392 10.5258 26.6359 10.5258 26.1384C10.5258 25.641 10.929 25.2377 11.4265 25.2377H14.1287V21.0343C14.1287 20.5368 14.532 20.1335 15.0294 20.1335Z" fill="#725DFF"/>
<path opacity="0.4" d="M3.01965 6.62247C3.01965 4.63262 4.63275 3.01953 6.62259 3.01953H23.4363C25.4262 3.01953 27.0393 4.63262 27.0393 6.62247V18.6323C27.0393 20.6221 25.4262 22.2352 23.4363 22.2352H6.62259C4.63274 22.2352 3.01965 20.6221 3.01965 18.6323V6.62247Z" fill="#725DFF"/>
<path d="M6.62259 22.2353H23.4363C25.4262 22.2353 27.0393 20.6222 27.0393 18.6324V17.4314H3.01965V18.6324C3.01965 20.6222 4.63274 22.2353 6.62259 22.2353Z" fill="#725DFF"/>
</svg>
