<svg width="1123" height="275" viewBox="0 0 1123 275" fill="none" xmlns="http://www.w3.org/2000/svg">
<rect x="1" width="1122" height="274" rx="16" fill="#725DFF"/>
<rect x="1" width="1122" height="274" rx="16" fill="#725DFF"/>
<path fill-rule="evenodd" clip-rule="evenodd" d="M959.369 64.9164L1003.93 53.2996L978.482 94.2495L959.369 64.9164ZM968.376 67.98L978.441 82.6327L992.055 61.3537L968.376 67.98Z" fill="#D3CDFF"/>
<path d="M983.411 81.3149L985.304 83.2695" stroke="#A192FF" stroke-width="0.371315" stroke-linecap="round" stroke-linejoin="round"/>
<path d="M987.88 76.2561L989.021 77.2952" stroke="#A192FF" stroke-width="0.371315" stroke-linecap="round" stroke-linejoin="round"/>
<path d="M990.579 69.7676L992.473 71.7222" stroke="#A192FF" stroke-width="0.371315" stroke-linecap="round" stroke-linejoin="round"/>
<path d="M994.825 65.0693L995.967 66.109" stroke="#A192FF" stroke-width="0.371315" stroke-linecap="round" stroke-linejoin="round"/>
<path d="M997.679 58.3459L999.573 60.3006" stroke="#A192FF" stroke-width="0.371315" stroke-linecap="round" stroke-linejoin="round"/>
<path fill-rule="evenodd" clip-rule="evenodd" d="M950.57 1.91163C950.57 1.91163 967.066 -2.5937 973.302 8.42702C979.539 19.4477 974.11 31.2586 958.727 28.7495C956.194 28.3475 953.925 27.7514 951.92 27.0167L943.832 30.7596L945.516 23.6204C936.301 16.6059 938.737 5.32181 950.57 1.91163Z" fill="white"/>
<path fill-rule="evenodd" clip-rule="evenodd" d="M967.775 20.9174L960.787 5.83494C960.787 5.83494 960.119 4.11598 958.922 5.11409C957.724 6.11219 948.662 19.6836 948.662 19.6836C948.662 19.6836 947.242 21.5135 950.165 22.068C953.089 22.6225 966.954 22.872 966.954 22.872C966.954 22.872 968.833 23.3295 967.775 20.9174Z" fill="#725DFF"/>
<path fill-rule="evenodd" clip-rule="evenodd" d="M960.663 9.71591L957.934 9.54956L957.962 16.259L959.772 16.3699L960.663 9.71591ZM958.63 19.988C959.034 20.0158 959.382 19.9049 959.66 19.6692C959.953 19.4197 960.106 19.1147 960.12 18.7404C960.147 18.38 960.036 18.0612 959.786 17.7978C959.535 17.5344 959.215 17.3819 958.797 17.3542C958.393 17.3264 958.045 17.4373 957.767 17.6591C957.489 17.8948 957.335 18.1998 957.308 18.5741C957.28 18.9345 957.391 19.2672 957.656 19.5306C957.906 19.8078 958.226 19.9603 958.63 19.988Z" fill="white"/>
<path fill-rule="evenodd" clip-rule="evenodd" d="M994.463 130.015C998.848 129.988 1008.69 129.295 1012.82 123.694C1018.2 116.389 1012.67 108.376 1001.26 108.071C974.695 107.378 974.57 127.673 989.187 129.78L991.595 135.02L994.463 130.015Z" fill="#725DFF" stroke="#30276B" stroke-width="0.371315" stroke-linecap="round" stroke-linejoin="round"/>
<path fill-rule="evenodd" clip-rule="evenodd" d="M990.175 118.954C990.941 118.954 991.553 119.591 991.553 120.367C991.553 121.144 990.941 121.781 990.175 121.781C989.41 121.781 988.783 121.144 988.783 120.367C988.783 119.591 989.41 118.954 990.175 118.954ZM1004.85 116.777C1005.61 116.777 1006.23 117.415 1006.23 118.191C1006.23 118.967 1005.61 119.605 1004.85 119.605C1004.08 119.605 1003.46 118.967 1003.46 118.191C1003.46 117.415 1004.08 116.777 1004.85 116.777ZM997.358 117.997C998.124 117.997 998.751 118.621 998.751 119.411C998.751 120.187 998.124 120.811 997.358 120.811C996.593 120.811 995.98 120.187 995.98 119.411C995.98 118.621 996.593 117.997 997.358 117.997Z" fill="#30276B"/>
<path fill-rule="evenodd" clip-rule="evenodd" d="M817.084 80.4149C822.457 73.1094 816.931 65.0968 805.516 64.7919C787.906 64.3344 781.92 73.0955 784.147 79.6663L781.154 85.0727L787.363 84.0608C788.936 85.2668 790.982 86.154 793.46 86.5006C801.005 86.8194 812.198 87.0412 817.084 80.4149Z" fill="#725DFF" stroke="#30276B" stroke-width="0.371315" stroke-linecap="round" stroke-linejoin="round"/>
<path fill-rule="evenodd" clip-rule="evenodd" d="M794.435 75.6742C795.2 75.6742 795.813 76.3119 795.813 77.0882C795.813 77.8645 795.2 78.4883 794.435 78.4883C793.669 78.4883 793.043 77.8645 793.043 77.0882C793.043 76.3119 793.669 75.6742 794.435 75.6742ZM809.107 73.4978C809.873 73.4978 810.486 74.1355 810.486 74.9118C810.486 75.6881 809.873 76.3258 809.107 76.3258C808.342 76.3258 807.715 75.6881 807.715 74.9118C807.715 74.1355 808.342 73.4978 809.107 73.4978ZM801.632 74.7177C802.398 74.7177 803.01 75.3415 803.01 76.1317C803.01 76.908 802.398 77.5318 801.632 77.5318C800.866 77.5318 800.24 76.908 800.24 76.1317C800.24 75.3415 800.866 74.7177 801.632 74.7177Z" fill="#30276B"/>
<path fill-rule="evenodd" clip-rule="evenodd" d="M804.639 11.4487L802.134 39.7837L825.924 35.5279L828.179 7.04041L804.639 11.4487Z" fill="white"/>
<path fill-rule="evenodd" clip-rule="evenodd" d="M806.533 13.5977L805.823 21.2221L825.229 17.7426L825.841 9.97961L806.533 13.5977Z" fill="#725DFF"/>
<path d="M808.662 22.6914L808.411 25.5748L805.516 25.9214" stroke="#30276B" stroke-width="0.371315" stroke-linecap="round" stroke-linejoin="round"/>
<path d="M813.66 22.0393L813.41 24.9089L810.514 25.2554" stroke="#30276B" stroke-width="0.371315" stroke-linecap="round" stroke-linejoin="round"/>
<path d="M818.769 20.9865L818.518 23.8699L815.623 24.2164" stroke="#30276B" stroke-width="0.371315" stroke-linecap="round" stroke-linejoin="round"/>
<path d="M823.752 19.9464L823.501 22.8298L820.606 23.1764" stroke="#30276B" stroke-width="0.371315" stroke-linecap="round" stroke-linejoin="round"/>
<path d="M808.411 27.5712L808.161 30.4407L805.265 30.8011" stroke="#30276B" stroke-width="0.371315" stroke-linecap="round" stroke-linejoin="round"/>
<path d="M813.409 26.9053L813.158 29.7887L810.263 30.1352" stroke="#30276B" stroke-width="0.371315" stroke-linecap="round" stroke-linejoin="round"/>
<path d="M818.517 25.8658L818.267 28.7354L815.371 29.082" stroke="#30276B" stroke-width="0.371315" stroke-linecap="round" stroke-linejoin="round"/>
<path d="M823.502 24.8258L823.251 27.7092L820.355 28.0558" stroke="#30276B" stroke-width="0.371315" stroke-linecap="round" stroke-linejoin="round"/>
<path d="M808.147 32.3259L807.896 35.2093L805.001 35.5559" stroke="#30276B" stroke-width="0.371315" stroke-linecap="round" stroke-linejoin="round"/>
<path d="M813.131 31.6741L812.881 34.5436L809.985 34.904" stroke="#30276B" stroke-width="0.371315" stroke-linecap="round" stroke-linejoin="round"/>
<path d="M818.24 30.6204L817.989 33.5038L815.094 33.8503" stroke="#30276B" stroke-width="0.371315" stroke-linecap="round" stroke-linejoin="round"/>
<path d="M823.223 29.5944L822.972 32.4639L820.091 32.8243" stroke="#30276B" stroke-width="0.371315" stroke-linecap="round" stroke-linejoin="round"/>
<path fill-rule="evenodd" clip-rule="evenodd" d="M880.077 71.0708L873.492 77.9743C873.492 77.9743 859.933 62.0601 858.277 59.3015C856.62 56.5428 856.063 55.4477 856.063 55.4477C856.063 55.4477 855.868 49.0848 856.411 46.6866C856.968 44.2745 858.806 41.2248 858.374 40.3653C857.942 39.5197 856.314 39.0483 854.88 41.0168C853.446 42.9992 852.068 45.6746 852.068 45.6746C852.068 45.6746 845.177 37.2739 843.186 36.3174C841.21 35.3609 839.999 36.2897 839.999 36.2897C839.999 36.2897 838.746 34.8619 836.95 35.9847C835.168 37.1214 837.632 38.9236 839.497 42.0288C841.349 45.134 842.588 47.9342 842.588 47.9342C842.588 47.9342 836.031 41.2663 834.486 40.795C832.955 40.3237 831.646 41.5436 833.33 43.5259C835.015 45.5083 836.031 46.6311 837.354 48.3085C838.69 49.9859 839.316 51.3167 839.316 51.3167C839.316 51.3167 834.917 49.0571 832.398 48.863C829.892 48.6551 830.741 51.081 831.924 51.4414C833.108 51.788 838.718 55.018 841.224 56.9726C843.743 58.9272 845.107 60.4798 845.107 60.4798L862.648 89.2723C864.263 91.9062 868.689 96.3838 876.374 92.7656C884.072 89.1614 893.83 81.5509 893.83 81.5509L880.077 71.0708Z" fill="#725DFF" stroke="#30276B" stroke-width="0.371315" stroke-linecap="round" stroke-linejoin="round"/>
<path fill-rule="evenodd" clip-rule="evenodd" d="M860.978 228.383C860.978 228.383 859.419 243.687 857.164 250.799C854.923 257.91 852.083 265.909 860.686 264.925C869.303 263.954 873.507 254.209 875.372 248.068C877.224 241.927 878.115 237.934 878.115 237.934L877.029 226.04L860.978 228.383Z" fill="#725DFF" stroke="#30276B" stroke-width="0.371315" stroke-linecap="round" stroke-linejoin="round"/>
<path fill-rule="evenodd" clip-rule="evenodd" d="M877.084 228.216C877.084 228.216 876.36 237.462 874.703 246.21C873.046 254.957 868.717 267.142 877.362 266.477C886.021 265.811 890.963 253.501 892.494 245.17C894.011 236.839 894.387 233.706 894.387 233.706L893.635 223.392L877.084 228.216Z" fill="#725DFF" stroke="#30276B" stroke-width="0.371315" stroke-linecap="round" stroke-linejoin="round"/>
<path fill-rule="evenodd" clip-rule="evenodd" d="M936.079 116.47C936.984 116.276 938.292 126.479 937.485 136.1C936.678 145.72 929.341 153.525 921.588 159.43C913.848 165.336 897.254 171.255 897.254 171.255C896.725 189.373 895.194 207.866 894.943 225.832C893.342 233.359 879.226 235.619 876.08 229.131C876.08 229.131 871.612 232.486 865.876 232.583C860.141 232.694 858.679 230.088 858.679 230.088C857.009 216.183 844.828 159.319 854.433 147.495C865.431 133.992 883.751 125.315 896.293 120.116L936.079 116.47Z" fill="#D3CDFF"/>
<path d="M878.922 146.649C877.767 147.343 868.815 153.012 869.971 167.18C871.126 181.361 875.873 226.803 875.957 227.537" stroke="#30276B" stroke-width="0.371315" stroke-linecap="round" stroke-linejoin="round"/>
<path fill-rule="evenodd" clip-rule="evenodd" d="M921.311 58.1371L931.598 54.2556C931.598 54.2556 942.387 56.64 946.159 65.5952C949.918 74.5642 951.087 80.1231 951.087 80.1231L937.25 86.8326C937.25 86.8326 932.782 99.794 934.786 108.112C936.805 116.429 937.751 116.776 936.652 118.98C935.538 121.184 930.318 126.784 914.824 128.794C899.344 130.791 892.801 123.388 892.3 122.279C891.799 121.184 894.555 109.207 894.457 104.008C894.36 98.7959 893.65 93.8886 893.65 93.8886C893.65 93.8886 890.086 91.3933 888.931 89.0367C887.775 86.6801 889.376 81.3291 889.376 81.3291L877.752 72.1244C877.752 72.1244 882.792 65.1516 886.007 61.8939C889.223 58.6362 892.87 55.933 898.467 54.8517C898.467 54.8517 899.302 54.7824 900.75 54.6854C907.724 54.7131 921.311 58.1371 921.311 58.1371Z" fill="#30276B" stroke="#30276B" stroke-width="0.148526" stroke-linecap="round" stroke-linejoin="round"/>
<path d="M876.484 81.4125L873.491 77.9746" stroke="#30276B" stroke-width="0.371315" stroke-linecap="round" stroke-linejoin="round"/>
<path d="M847.071 52.7451C847.071 52.7451 849.632 50.333 850.565 48.7111C851.497 47.0753 852.068 45.6752 852.068 45.6752" stroke="#30276B" stroke-width="0.371315" stroke-linecap="round" stroke-linejoin="round"/>
<path d="M846.597 45.7857C845.066 43.2628 842.49 39.1872 839.999 36.2899" stroke="#30276B" stroke-width="0.371315" stroke-linecap="round" stroke-linejoin="round"/>
<path d="M893.204 66.9814C893.204 66.9814 892.772 71.362 892.076 74.0652C891.658 75.6317 890.907 77.5724 890.336 78.9448" stroke="#725DFF" stroke-width="0.371315" stroke-linecap="round" stroke-linejoin="round"/>
<path fill-rule="evenodd" clip-rule="evenodd" d="M847.014 103.717L845.344 105.298L856.578 141.909L908.628 149.394L934.27 129.266L903.185 126.119L898.396 110.496L847.014 103.717Z" fill="white"/>
<path d="M847.043 105.52L896.824 112.132L907.989 147.676" stroke="#725DFF" stroke-width="0.371315" stroke-linecap="round" stroke-linejoin="round"/>
<path fill-rule="evenodd" clip-rule="evenodd" d="M891.98 28.1664C892.676 31.8677 893.4 35.0422 894.235 37.6622C894.903 39.5475 895.975 41.8348 897.562 43.8033C900.959 47.9898 906.054 47.7541 906.054 47.7541L906.36 52.7585L898.467 54.8517C898.467 54.8517 893.581 72.3878 909.172 71.5838C924.763 70.7798 931.598 54.2556 931.598 54.2556L920.03 51.7604C920.03 51.7604 918.875 43.6369 918.777 40.8922C918.68 38.1335 918.875 36.2344 918.875 36.2344C918.875 36.2344 921.896 35.8601 922.703 32.1449C923.496 28.4436 922.23 26.4751 921.673 25.8375C929.079 1.13444 886.091 -3.2184 891.98 28.1664Z" fill="#725DFF"/>
<path fill-rule="evenodd" clip-rule="evenodd" d="M906.053 47.7542C906.053 47.7542 900.958 47.9898 897.562 43.8034C895.975 41.8349 894.903 39.5476 894.235 37.6623C893.399 35.0422 892.675 31.8677 891.979 28.1664C891.659 26.4891 891.492 24.9226 891.45 23.4532C891.604 23.0927 894.457 16.5358 900.75 13.9712C900.75 13.9712 900.638 19.433 905.566 22.3442C910.494 25.2414 914.768 25.0474 914.768 25.0474C914.768 25.0474 914.698 27.5981 915.004 29.22C915.297 30.8558 916.202 31.6736 916.355 31.5489C916.508 31.4241 915.881 27.2654 918.318 25.9207C920.754 24.5622 921.673 25.8375 921.673 25.8375C922.229 26.4752 923.496 28.4437 922.703 32.145C921.895 35.8601 918.874 36.2344 918.874 36.2344C918.874 36.2344 918.68 38.1336 918.777 40.8922C918.861 43.1518 919.654 49.0434 919.932 51.0673C928.438 48.7384 932.823 44.0113 932.823 44.0113C932.614 31.8677 927.853 -4.13325 908.921 4.10109C908.921 4.10109 902.685 -0.59831 896.239 4.84966C889.808 10.3115 887.135 20.4311 885.938 31.6875C884.727 42.9577 882.36 49.7642 882.36 49.7642C882.36 49.7642 884.253 50.6237 885.812 48.8216C887.372 47.0195 889.627 41.7517 889.627 41.7517C889.627 41.7517 888.778 50.3187 890.281 51.4277C891.311 52.1763 898.55 52.9249 906.36 52.717L906.053 47.7542Z" fill="white"/>
<path d="M918.595 33.6561C918.595 33.6561 918.066 31.9788 918.734 29.5251C919.417 27.0714 920.948 27.515 920.948 27.515" stroke="#30276B" stroke-width="0.371315" stroke-linecap="round" stroke-linejoin="round"/>
<path d="M920.74 31.4657L918.652 29.8715" stroke="#30276B" stroke-width="0.371315" stroke-linecap="round" stroke-linejoin="round"/>
<path fill-rule="evenodd" clip-rule="evenodd" d="M895.138 28.8734C895.723 28.6654 896.377 29.0397 896.6 29.6913C896.837 30.3567 896.558 31.0498 895.973 31.2577C895.389 31.4518 894.735 31.0775 894.512 30.426C894.275 29.7606 894.554 29.0674 895.138 28.8734ZM905.454 29.3586C906.038 29.1506 906.692 29.5249 906.929 30.1903C907.152 30.8418 906.873 31.535 906.303 31.7429C905.718 31.937 905.064 31.5766 904.827 30.9112C904.604 30.2596 904.883 29.5526 905.454 29.3586Z" fill="#30276B"/>
<path d="M900.011 29.109C900.011 29.109 899.789 32.838 899.566 34.4738C899.343 36.0957 899.037 37.177 899.037 37.177C899.942 37.4127 901.069 37.4127 902.03 37.1216" stroke="#30276B" stroke-width="0.371315" stroke-linecap="round" stroke-linejoin="round"/>
<path d="M896.071 34.0019C898.314 32.938 899.198 30.0898 898.046 27.6402C896.893 25.1906 894.141 24.0672 891.898 25.1311C889.656 26.195 888.772 29.0432 889.924 31.4928C891.076 33.9424 893.829 35.0657 896.071 34.0019Z" stroke="#30276B" stroke-width="0.503207" stroke-linecap="round" stroke-linejoin="round"/>
<path d="M908.552 33.9888C910.795 32.925 911.679 30.0768 910.526 27.6272C909.374 25.1776 906.622 24.0542 904.379 25.118C902.136 26.1819 901.252 29.0301 902.405 31.4797C903.557 33.9293 906.309 35.0527 908.552 33.9888Z" stroke="#30276B" stroke-width="0.503207" stroke-linecap="round" stroke-linejoin="round"/>
<path d="M917.134 27.113L910.995 29.234" stroke="#30276B" stroke-width="0.371315" stroke-linecap="round" stroke-linejoin="round"/>
<path d="M898.549 29.5803L901.918 29.6639" stroke="#30276B" stroke-width="0.371315" stroke-linecap="round" stroke-linejoin="round"/>
<path d="M915.533 41.7106C913.863 44.8712 910.884 46.812 907.389 47.5606" stroke="#30276B" stroke-width="0.371315" stroke-linecap="round" stroke-linejoin="round"/>
<path d="M904.883 42.8893C905.595 42.6529 905.966 41.7689 905.712 40.9147C905.458 40.0605 904.675 39.5597 903.964 39.796C903.252 40.0324 902.881 40.9165 903.135 41.7706C903.389 42.6248 904.172 43.1257 904.883 42.8893Z" fill="#30276B" stroke="#30276B" stroke-width="0.457974" stroke-linecap="round" stroke-linejoin="round"/>
<path d="M901.862 39.8669L904.131 39.7555" stroke="#30276B" stroke-width="0.371315" stroke-linecap="round" stroke-linejoin="round"/>
<path d="M931.613 78.0298L934.48 86.9434" stroke="#725DFF" stroke-width="0.371315" stroke-linecap="round" stroke-linejoin="round"/>
<path fill-rule="evenodd" clip-rule="evenodd" d="M936.192 87.2343L939.589 101.291L922.689 121.114C922.689 121.114 911.928 125.065 910.466 126.479C909.019 127.879 906.151 130.86 905.789 131.289C905.441 131.719 906.193 132.44 906.847 132.565C907.501 132.689 908.03 132.565 908.03 132.565C908.03 132.565 905.914 136.197 906.276 137.042C906.624 137.902 908.309 137.125 908.309 137.125C908.309 137.125 908.462 138.526 909.283 138.581C910.118 138.623 911.371 137.472 911.371 137.472C911.371 137.472 911.622 138.623 913.014 138.401C914.392 138.179 915.088 136.793 915.088 136.793C915.088 136.793 915.979 138.831 918.012 136.779C922.842 131.899 921.366 134.173 926.378 130.208C928.8 128.309 930.206 126.562 930.206 126.562C930.206 126.562 952.925 114.044 953.579 103.772C954.234 93.514 950.043 80.6218 950.043 80.6218L936.192 87.2343Z" fill="#725DFF" stroke="#30276B" stroke-width="0.371315" stroke-linecap="round" stroke-linejoin="round"/>
<path d="M919.862 130.86C918.999 131.456 916.633 133.743 915.087 136.793" stroke="#30276B" stroke-width="0.371315" stroke-linecap="round" stroke-linejoin="round"/>
<path d="M916.883 130.153C915.087 131.636 912.387 134.852 911.371 137.472" stroke="#30276B" stroke-width="0.371315" stroke-linecap="round" stroke-linejoin="round"/>
<path d="M914.363 129.751C911.356 132.274 909.755 134.201 908.307 137.126" stroke="#30276B" stroke-width="0.371315" stroke-linecap="round" stroke-linejoin="round"/>
<path d="M911.954 128.684C910.632 129.724 908.934 131.179 908.029 132.566" stroke="#30276B" stroke-width="0.371315" stroke-linecap="round" stroke-linejoin="round"/>
<path d="M908.141 4.75269C908.141 4.75269 906.206 5.4874 904.243 7.42815C902.28 9.38277 901.278 11.6701 901.278 11.6701" stroke="#725DFF" stroke-width="0.371315" stroke-linecap="round" stroke-linejoin="round"/>
<path d="M906.011 12.8206C906.011 12.8206 907.208 18.2269 912.888 20.2786C918.581 22.3303 920.586 21.7757 920.586 21.7757" stroke="#725DFF" stroke-width="0.371315" stroke-linecap="round" stroke-linejoin="round"/>
<path d="M912.636 14.1656C912.636 14.1656 913.541 16.7718 916.91 17.7283C920.279 18.671 921.74 18.7819 921.74 18.7819" stroke="#725DFF" stroke-width="0.371315" stroke-linecap="round" stroke-linejoin="round"/>
<path d="M919.584 14.8165C919.584 14.8165 921.491 15.1215 922.995 16.4246C924.512 17.7277 925.069 18.3792 925.069 18.3792" stroke="#725DFF" stroke-width="0.371315" stroke-linecap="round" stroke-linejoin="round"/>
<path d="M927.324 34.8483C927.324 34.8483 927.923 37.7039 927.923 40.2131C927.923 42.7083 927.923 42.7083 927.923 42.7083V42.4588" stroke="#725DFF" stroke-width="0.371315" stroke-linecap="round" stroke-linejoin="round"/>
<path d="M924.608 37.1079C924.608 37.1079 924.817 39.0487 925.012 40.3101C925.207 41.5578 925.207 41.6548 925.207 41.6548" stroke="#725DFF" stroke-width="0.371315" stroke-linecap="round" stroke-linejoin="round"/>
<path d="M894.094 45.1205L894.039 48.0732" stroke="#725DFF" stroke-width="0.371315" stroke-linecap="round" stroke-linejoin="round"/>
<path d="M942.608 101.292H939.587" stroke="#30276B" stroke-width="0.371315" stroke-linecap="round" stroke-linejoin="round"/>
<path d="M906.22 50.0552L906.415 52.8277L901.473 54.1447M925.486 52.9802L920.015 51.8019C920.015 51.8019 918.874 43.6369 918.776 40.8921C918.679 38.1335 918.874 36.2343 918.874 36.2343C918.874 36.2343 921.895 35.86 922.702 32.1449C923.496 28.4436 922.229 26.4751 921.672 25.8374" stroke="#30276B" stroke-width="0.371315" stroke-linecap="round" stroke-linejoin="round"/>
<path d="M896.684 185.409C896.907 180.668 897.116 175.941 897.255 171.256C897.255 171.256 913.848 165.336 921.588 159.431C929.342 153.525 936.679 145.721 937.486 136.1C938.293 126.48 937.375 122.099 937.375 122.099M858.095 143.447C856.801 144.75 855.576 146.095 854.434 147.495C850.676 152.125 850.258 163.659 851.232 176.814L858.095 143.447Z" stroke="#30276B" stroke-width="0.371315" stroke-linecap="round" stroke-linejoin="round"/>
<path fill-rule="evenodd" clip-rule="evenodd" d="M957.963 146.858C957.963 146.858 954.803 148.605 952.687 153.013C950.585 157.422 949.318 163.881 949.318 163.881C949.318 163.881 943.736 170.147 943.332 171.395C942.928 172.643 947.606 173.474 947.606 173.474C947.606 173.474 946.729 176.33 946.784 176.649C946.826 176.982 954.176 177.453 954.775 177.758C954.747 178.396 948.914 181.154 947.856 181.861C946.798 182.554 948.789 184.758 948.789 184.758C948.789 184.758 946.283 192.771 948.886 193.727C951.503 194.684 962.417 192.882 962.417 192.882L963.072 201.241L984.036 197.027L982.435 181.002C982.435 181.002 992.987 168.886 989.271 156.673C985.54 144.46 967.846 141.05 957.963 146.858Z" fill="#725DFF" stroke="#30276B" stroke-width="0.371315" stroke-linecap="round" stroke-linejoin="round"/>
<path d="M955.455 166.884C956.239 166.962 956.951 166.24 957.048 165.273C957.144 164.305 956.587 163.459 955.803 163.381C955.02 163.304 954.307 164.026 954.211 164.993C954.115 165.96 954.672 166.807 955.455 166.884Z" fill="#30276B"/>
<path d="M954.093 159.293C954.093 159.293 955.054 158.725 956.808 159.127C958.576 159.529 958.993 160.43 958.993 160.43" stroke="#30276B" stroke-width="0.371315" stroke-linecap="round" stroke-linejoin="round"/>
<path fill-rule="evenodd" clip-rule="evenodd" d="M869.955 182.609C869.955 182.609 877.375 224.751 876.525 224.835C875.69 224.918 933.851 211.61 933.851 211.61L927.573 169.287L869.955 182.609Z" fill="white"/>
<path fill-rule="evenodd" clip-rule="evenodd" d="M951.351 141.258C950.446 147.967 954.121 149.672 957.587 150.698C961.053 151.724 966.97 151.682 966.608 156.09C966.26 160.485 964.854 160.942 966.051 163.341C967.262 165.753 965.508 170.05 967.318 170.41C969.127 170.757 968.974 165.656 974.209 167.596C979.429 169.551 976.867 176.662 974.459 178.562C972.037 180.475 971.591 180.017 972.19 182.72C972.803 185.424 974.348 189.277 976.617 189.43C978.886 189.582 978.176 187.586 981.044 187.78C983.911 187.974 984.413 187.184 986.167 183.469C987.935 179.768 991.805 179.823 993.405 176.967C995.02 174.112 994.213 171.062 995.925 168.248C997.637 165.448 1002.82 161.843 1001.2 157.962C999.6 154.08 996.426 151.377 996.482 149.575C996.524 147.773 996.51 142.491 992.612 142.339C988.714 142.186 984.357 144.196 981.364 140.759C978.385 137.334 975.837 133.522 972.315 135.782C965.981 139.83 952.701 131.263 951.351 141.258Z" fill="#30276B" stroke="#30276B" stroke-width="0.148526" stroke-linecap="round" stroke-linejoin="round"/>
<path d="M971.02 177.009C971.02 177.009 970.017 173.53 971.521 171.478C973.038 169.426 974.918 170.799 974.918 170.799" stroke="#30276B" stroke-width="0.371315" stroke-linecap="round" stroke-linejoin="round"/>
<path d="M973.945 174.791L971.244 171.935" stroke="#30276B" stroke-width="0.371315" stroke-linecap="round" stroke-linejoin="round"/>
<path fill-rule="evenodd" clip-rule="evenodd" d="M940.616 217.529C940.616 217.529 932.334 216.461 931.443 215.616C930.552 214.77 929.786 212.899 931.192 211.568C932.612 210.237 936.19 207.021 936.19 207.021C936.19 207.021 929.883 202.446 927.962 200.977C926.027 199.508 923.647 198.08 924.065 196.68C924.496 195.266 927.865 197.026 930.524 198.094C933.183 199.161 938.821 201.712 938.821 201.712C938.821 201.712 939.767 200.395 940.923 199.993C942.092 199.591 942.468 200.034 942.997 199.743C943.54 199.452 944.612 197.941 945.419 198.302C946.226 198.662 946.742 199.05 947.549 198.523C948.342 197.983 949.804 197.9 951.029 198.773C952.254 199.632 958.101 208.019 957.99 207.298C957.864 206.564 940.616 217.529 940.616 217.529Z" fill="#725DFF" stroke="#30276B" stroke-width="0.371315" stroke-linecap="round" stroke-linejoin="round"/>
<path d="M875.524 185.216L915.045 176.302" stroke="#30276B" stroke-width="0.371315" stroke-linecap="round" stroke-linejoin="round"/>
<path d="M919.041 174.098L923.008 176.441" stroke="#30276B" stroke-width="0.371315" stroke-linecap="round" stroke-linejoin="round"/>
<path d="M922.367 173.224L919.583 177.314" stroke="#30276B" stroke-width="0.371315" stroke-linecap="round" stroke-linejoin="round"/>
<path fill-rule="evenodd" clip-rule="evenodd" d="M876.943 190.885L881.008 214.618L902.126 209.905L898.144 186.02L876.943 190.885Z" fill="#725DFF"/>
<path fill-rule="evenodd" clip-rule="evenodd" d="M903.992 184.62L904.493 187.226L924.358 182.568L923.899 179.865L903.992 184.62Z" fill="#725DFF"/>
<path fill-rule="evenodd" clip-rule="evenodd" d="M905.301 191.371L905.802 193.977L919.082 190.872L918.623 188.169L905.301 191.371Z" fill="#725DFF"/>
<path d="M906.832 198.731L923.147 194.974" stroke="#725DFF" stroke-width="0.371315" stroke-linecap="round" stroke-linejoin="round"/>
<path d="M907.736 202.849L921.434 199.619" stroke="#725DFF" stroke-width="0.371315" stroke-linecap="round" stroke-linejoin="round"/>
<path d="M908.418 207.16L924.023 203.5" stroke="#725DFF" stroke-width="0.371315" stroke-linecap="round" stroke-linejoin="round"/>
<path fill-rule="evenodd" clip-rule="evenodd" d="M893.231 221.841C893.231 221.841 888.86 216.933 886.897 210.473C884.934 204.013 884.586 199.009 882.93 199.356C881.259 199.702 880.716 202.003 880.716 204.817C880.716 207.618 881.106 209.974 881.106 209.974L873.561 203.695L872.934 199.966C872.934 199.966 868.939 201.269 868.187 202.974C867.436 204.679 868.535 207.729 868.535 207.729C868.535 207.729 867.227 208.449 867.227 210.224C867.227 212.012 868.744 213.606 868.744 213.606C868.744 213.606 867.728 214.937 867.825 216.157C867.937 217.391 869.162 218.791 869.162 218.791C869.162 218.791 868.327 222.963 870.721 224.724C873.115 226.485 880.02 232.03 880.02 232.03L893.231 221.841Z" fill="#725DFF" stroke="#30276B" stroke-width="0.371315" stroke-linecap="round" stroke-linejoin="round"/>
<path fill-rule="evenodd" clip-rule="evenodd" d="M931.889 226.585C931.889 226.585 938.223 214.775 946.13 211.212C948.274 210.255 952.2 209.105 956.974 207.954C956.974 207.954 957.81 202.77 959.967 201.924C962.139 201.078 981.851 198.015 981.851 198.015C981.851 198.015 987.169 196.767 988.38 197.973C989.591 199.165 991.206 201.661 991.206 201.661C992.723 201.48 994.032 201.356 995.048 201.3C1004.19 200.801 1012.05 203.199 1014.16 217.422C1016.01 229.968 1014.29 265.844 1013.84 274.162H908.739C896.502 261.796 888.637 251.815 877.57 233.988C878.489 222.357 890.544 220.028 893.036 222.177L922.896 247.823C922.896 247.823 930.539 228.734 931.889 226.585Z" fill="white"/>
<path d="M918.789 256.483L922.896 245.823" stroke="#30276B" stroke-width="0.371315" stroke-linecap="round" stroke-linejoin="round"/>
<path d="M954.092 242.856L943.833 272.161" stroke="#30276B" stroke-width="0.371315" stroke-linecap="round" stroke-linejoin="round"/>
<path d="M880.117 236.05C880.117 236.05 880.437 229.673 885.351 225.805C890.279 221.938 896.043 222.769 896.043 222.769" stroke="#A94D4D" stroke-width="0.371315" stroke-linecap="round" stroke-linejoin="round"/>
<path d="M878.127 228.883L880.995 232.099" stroke="#A94D4D" stroke-width="0.371315" stroke-linecap="round" stroke-linejoin="round"/>
<path d="M879.769 225.306L882.943 228.342" stroke="#A94D4D" stroke-width="0.371315" stroke-linecap="round" stroke-linejoin="round"/>
<path d="M882.553 222.298L885.644 225.583" stroke="#A94D4D" stroke-width="0.371315" stroke-linecap="round" stroke-linejoin="round"/>
<path d="M886.034 220.316L888.873 223.782" stroke="#A94D4D" stroke-width="0.371315" stroke-linecap="round" stroke-linejoin="round"/>
<path d="M890.002 219.469L892.605 222.824" stroke="#A94D4D" stroke-width="0.371315" stroke-linecap="round" stroke-linejoin="round"/>
<path d="M871.779 202.433L873.561 203.695" stroke="#30276B" stroke-width="0.371315" stroke-linecap="round" stroke-linejoin="round"/>
<path d="M940.465 202.433L938.822 201.712" stroke="#30276B" stroke-width="0.371315" stroke-linecap="round" stroke-linejoin="round"/>
<path d="M973.429 142.796C973.429 142.796 976.631 142.519 978.51 143.753C980.375 144.986 981.071 147.26 981.071 147.26" stroke="#725DFF" stroke-width="0.371315" stroke-linecap="round" stroke-linejoin="round"/>
<path d="M986.473 164.99C986.473 164.99 987.127 168.539 986.264 170.05C985.415 171.547 984.315 172.199 984.315 172.199" stroke="#725DFF" stroke-width="0.371315" stroke-linecap="round" stroke-linejoin="round"/>
<path d="M990.273 168.262C990.273 168.262 991.735 165.406 991.484 163.313C991.234 161.206 989.884 159.473 989.884 159.473" stroke="#725DFF" stroke-width="0.371315" stroke-linecap="round" stroke-linejoin="round"/>
<path d="M973.456 147.718C972.788 146.04 970.074 145.597 968.264 146.04" stroke="#725DFF" stroke-width="0.371315" stroke-linecap="round" stroke-linejoin="round"/>
<path d="M961.178 205.178C972.203 202.808 980.082 201.408 991.205 199.661" stroke="#A94D4D" stroke-width="0.371315" stroke-linecap="round" stroke-linejoin="round"/>
<path d="M750.738 103.163L749.235 89.3426M749.235 89.3426C747.244 88.4276 742.748 86.0433 741.871 82.8965C740.729 78.8348 744.21 77.7673 744.21 77.7673L749.235 89.3426ZM774.098 60.6194C774.098 60.6194 777.272 76.1316 777.55 82.2172C777.828 88.3167 776.047 92.8636 773.931 94.6658C771.801 96.4818 768.446 96.9947 768.446 96.9947" stroke="#30276B" stroke-width="0.371315" stroke-linecap="round" stroke-linejoin="round"/>
<path fill-rule="evenodd" clip-rule="evenodd" d="M748.024 196.056C748.024 196.056 750.933 217.793 758.979 236.41C764.367 248.872 772.538 264.911 777.355 274.171H838.37L811.182 182.637L748.024 196.056Z" fill="#30276B"/>
<path fill-rule="evenodd" clip-rule="evenodd" d="M752.798 104.633L749.123 104.12C749.123 104.12 725.889 114.447 726 131.665C726.098 148.896 728.91 157.699 733.142 164.408C737.36 171.118 743.596 174.431 743.596 174.431L745.503 196.957C745.503 196.957 745.406 202.267 749.276 202.364C753.146 202.475 781.809 202.669 797.4 196.458C812.992 190.248 814.286 187.545 813.785 184.037C813.284 180.53 807.451 159.099 807.451 159.099C807.451 159.099 821.428 153.997 819.326 142.076C817.21 130.168 806.003 112.285 797.498 105.825C789.006 99.3651 771.897 101.126 771.897 101.126C771.897 101.126 762.71 108.584 752.798 104.633Z" fill="#D3CDFF"/>
<path fill-rule="evenodd" clip-rule="evenodd" d="M774.098 60.6194C774.098 60.6194 777.272 76.1315 777.55 82.2172C777.828 88.3167 776.047 92.8636 773.931 94.6657C771.801 96.4817 768.446 96.9946 768.446 96.9946L769.713 101.07L771.898 101.126C771.898 101.126 773.708 111.62 762.195 113.034C750.683 114.434 749.124 104.12 749.124 104.12L750.738 103.163L749.235 89.3425C747.244 88.4276 742.748 86.0432 741.871 82.8964C740.729 78.8347 744.21 77.7673 744.21 77.7673C744.21 77.7673 736.72 62.1858 753.926 56.8903C771.119 51.5949 774.098 60.6194 774.098 60.6194Z" fill="#725DFF"/>
<path fill-rule="evenodd" clip-rule="evenodd" d="M750.293 77.4898C750.39 78.3354 750.487 79.0701 750.515 79.6107C750.641 81.7871 749.416 81.1356 748.65 79.7771C747.884 78.4185 746.255 77.5452 744.209 77.767C744.209 77.767 740.729 78.8344 741.87 82.8961C743.012 86.9717 749.235 89.3422 749.235 89.3422C749.235 89.3422 749.569 92.5167 749.931 95.8022C745.796 94.0278 741.314 89.162 736.929 80.3316C732.543 71.5011 733.24 66.9958 736.219 60.924C739.198 54.8384 743.792 53.1887 751.211 51.7332C758.631 50.2776 767.499 48.5587 767.499 48.5587C775.698 47.2833 779.109 44.8158 780.529 47.117C781.962 49.4181 778.301 51.8302 778.301 51.8302C778.301 51.8302 783.257 51.8302 783.828 54.3809C784.399 56.9316 777.675 58.6229 777.675 58.6229C777.675 58.6229 781.67 60.4804 780.751 62.1301C779.846 63.7659 774.807 64.2372 774.807 64.2372C774.807 64.2372 772.705 64.2233 768.96 64.2788C767.554 64.2926 765.828 64.154 763.963 64.057C764.227 64.5144 764.297 65.0828 763.879 65.7205C762.738 67.4949 754.859 65.9423 754.859 65.9423C754.859 65.9423 754.051 69.6574 749.972 69.2C749.332 71.4041 749.596 74.2459 750.293 77.4898Z" fill="#30276B" stroke="#30276B" stroke-width="0.148526" stroke-linecap="round" stroke-linejoin="round"/>
<path d="M761.371 78.6545C760.729 78.8078 760.032 78.1996 759.815 77.2961C759.597 76.3925 759.941 75.5358 760.582 75.3825C761.224 75.2292 761.921 75.8374 762.138 76.741C762.356 77.6445 762.012 78.5012 761.371 78.6545Z" fill="#30276B"/>
<path d="M772.835 75.2358C772.194 75.3891 771.497 74.7809 771.279 73.8774C771.062 72.9738 771.406 72.1171 772.047 71.9638C772.689 71.8105 773.386 72.4187 773.603 73.3223C773.821 74.2258 773.477 75.0825 772.835 75.2358Z" fill="#30276B"/>
<path d="M767.596 74.385C767.596 74.385 770.505 80.5954 769.823 82.0233C769.127 83.4511 767.136 83.1461 767.136 83.1461" stroke="#30276B" stroke-width="0.371315" stroke-linecap="round" stroke-linejoin="round"/>
<path d="M743.708 80.5254C746.617 80.8858 748.998 83.4781 749.415 86.2784" stroke="#30276B" stroke-width="0.371315" stroke-linecap="round" stroke-linejoin="round"/>
<path d="M745.379 84.0325L747.384 82.4521" stroke="#30276B" stroke-width="0.371315" stroke-linecap="round" stroke-linejoin="round"/>
<path d="M761.039 71.9314C761.039 71.9314 760.218 71.9453 758.923 72.4305C757.628 72.9156 757.044 73.5395 757.044 73.5395" stroke="#30276B" stroke-width="0.371315" stroke-linecap="round" stroke-linejoin="round"/>
<path d="M773.248 69.1588C771.772 68.9231 770.283 69.5053 769.086 70.3232" stroke="#30276B" stroke-width="0.371315" stroke-linecap="round" stroke-linejoin="round"/>
<path d="M773.902 57.0288C771.619 56.0307 768.237 55.1297 763.893 55.1019" stroke="#725DFF" stroke-width="0.371315" stroke-linecap="round" stroke-linejoin="round"/>
<path d="M772.496 51.5813C770.032 51.4427 768.473 51.4011 765.55 51.8031" stroke="#725DFF" stroke-width="0.371315" stroke-linecap="round" stroke-linejoin="round"/>
<path d="M766.232 59.4957C764.868 58.8996 763.128 58.3312 761.012 57.9708" stroke="#725DFF" stroke-width="0.371315" stroke-linecap="round" stroke-linejoin="round"/>
<path d="M743.903 75.0084C743.763 73.9133 743.652 72.6657 743.666 71.4042C743.666 70.8081 743.694 70.1981 743.763 69.6021" stroke="#725DFF" stroke-width="0.371315" stroke-linecap="round" stroke-linejoin="round"/>
<path d="M741.119 73.3728C740.938 71.7647 740.854 69.8101 741.077 67.9802" stroke="#725DFF" stroke-width="0.371315" stroke-linecap="round" stroke-linejoin="round"/>
<path d="M737.735 72.6383C737.596 71.557 737.526 70.4203 737.568 69.3113" stroke="#725DFF" stroke-width="0.371315" stroke-linecap="round" stroke-linejoin="round"/>
<path d="M767.276 90.5483C768.167 90.5483 768.89 89.667 768.89 88.5798C768.89 87.4926 768.167 86.6113 767.276 86.6113C766.384 86.6113 765.661 87.4926 765.661 88.5798C765.661 89.667 766.384 90.5483 767.276 90.5483Z" fill="#30276B" stroke="#30276B" stroke-width="0.371315" stroke-linecap="round" stroke-linejoin="round"/>
<path d="M769.615 86.2509C768.529 86.0845 767.206 86.4034 766.65 86.7638" stroke="#30276B" stroke-width="0.371315" stroke-linecap="round" stroke-linejoin="round"/>
<path fill-rule="evenodd" clip-rule="evenodd" d="M750.111 134.077L746.784 151.599C746.784 151.599 743.164 153.055 741.508 153.457C739.851 153.859 739.35 152.833 739.35 152.833C739.35 152.833 738.056 153.152 737.527 152.472C737.011 151.807 737.151 150.448 737.151 150.448C737.151 150.448 736.246 150.13 736.107 149.076C735.953 148.022 736.371 146.595 736.371 146.595C736.371 146.595 735.174 141.84 739.796 137.778C744.417 133.73 750.111 134.077 750.111 134.077Z" fill="#725DFF"/>
<path d="M744.947 147.773C744.947 147.773 742.26 149.298 741.202 150.393C740.144 151.502 739.351 152.833 739.351 152.833" stroke="#30276B" stroke-width="0.371315" stroke-linecap="round" stroke-linejoin="round"/>
<path d="M745.35 142.339C745.35 142.339 742.441 144.169 740.603 145.943C738.766 147.718 737.151 150.448 737.151 150.448" stroke="#30276B" stroke-width="0.371315" stroke-linecap="round" stroke-linejoin="round"/>
<path d="M745.504 138.25C745.504 138.25 743.067 138.804 740.798 140.731C738.543 142.658 736.371 146.595 736.371 146.595" stroke="#30276B" stroke-width="0.371315" stroke-linecap="round" stroke-linejoin="round"/>
<path d="M807.451 159.098C807.451 159.098 800.435 161.885 789.674 161.691C778.928 161.483 769.336 157.379 769.336 157.379" stroke="#30276B" stroke-width="0.371315" stroke-linecap="round" stroke-linejoin="round"/>
<path d="M810.402 138.208L771.048 138.443" stroke="#30276B" stroke-width="0.371315" stroke-linecap="round" stroke-linejoin="round"/>
<path d="M794.811 117.525L801.145 138.263" stroke="#30276B" stroke-width="0.371315" stroke-linecap="round" stroke-linejoin="round"/>
<path d="M745.031 126.342L745.88 134.604" stroke="#30276B" stroke-width="0.371315" stroke-linecap="round" stroke-linejoin="round"/>
<path d="M753.981 116.998C753.981 116.998 761.179 118.37 765.021 119.244C768.863 120.131 771.563 120.852 771.563 120.852" stroke="#A192FF" stroke-width="0.371315" stroke-linecap="round" stroke-linejoin="round"/>
<path d="M757.698 114.087L757.113 117.608" stroke="#A192FF" stroke-width="0.371315" stroke-linecap="round" stroke-linejoin="round"/>
<path d="M760.247 114.627L759.731 118.134" stroke="#A192FF" stroke-width="0.371315" stroke-linecap="round" stroke-linejoin="round"/>
<path d="M763.141 115.223L762.64 118.731" stroke="#A192FF" stroke-width="0.371315" stroke-linecap="round" stroke-linejoin="round"/>
<path d="M765.898 115.806L765.369 119.327" stroke="#A192FF" stroke-width="0.371315" stroke-linecap="round" stroke-linejoin="round"/>
<path d="M768.334 116.333L768.014 119.951" stroke="#A192FF" stroke-width="0.371315" stroke-linecap="round" stroke-linejoin="round"/>
<path d="M794.212 205.275V214.078L811.209 274.172" stroke="#725DFF" stroke-width="0.371315" stroke-linecap="round" stroke-linejoin="round"/>
<path d="M757.17 207.326C757.17 207.326 758.826 208.519 761.332 209.531C763.852 210.529 766.218 211.222 766.218 211.222" stroke="#725DFF" stroke-width="0.371315" stroke-linecap="round" stroke-linejoin="round"/>
<path d="M758.465 212.885C758.465 212.885 760.455 214.049 761.485 214.437C762.516 214.812 762.878 215.061 762.878 215.061" stroke="#725DFF" stroke-width="0.371315" stroke-linecap="round" stroke-linejoin="round"/>
<path d="M756.821 93.8057C756.821 93.8057 758.701 95.8712 761.958 96.6613C765.216 97.4515 768.445 96.9941 768.445 96.9941" stroke="#30276B" stroke-width="0.371315" stroke-linecap="round" stroke-linejoin="round"/>
<path d="M768.333 115.057C772.969 113.393 776.018 107.502 776.018 100.917M746.241 105.575C746.241 105.575 748.218 112.797 754.245 115.847L746.241 105.575Z" stroke="#A192FF" stroke-width="0.371315" stroke-linecap="round" stroke-linejoin="round"/>
<path fill-rule="evenodd" clip-rule="evenodd" d="M756.473 113.837L767.986 116.235C767.986 116.235 768.487 113.38 768.487 113.213C768.487 113.033 774.654 109.457 775.057 108.126C775.447 106.795 774.528 105.644 774.528 105.644C774.528 105.644 775.197 104.591 774.876 103.523C774.542 102.442 774.152 102.22 774.152 102.22C774.152 102.22 774.695 100.862 774.152 100.183C773.596 99.5172 772.774 99.3231 772.774 99.3231C772.774 99.3231 774.459 96.9665 774.236 95.9268C774.013 94.8732 772.162 95.5248 772.162 95.5248L763.67 98.7132C763.67 98.7132 760.315 91.5324 757.851 92.5305C755.61 93.4315 759.536 97.7567 759.536 101.472C759.536 105.173 756.473 113.837 756.473 113.837Z" fill="#725DFF" stroke="#30276B" stroke-width="0.371315" stroke-linecap="round" stroke-linejoin="round"/>
<path d="M745.782 156.478L746.784 151.599L750.112 134.076L753.982 116.998L754.789 113.463L756.473 113.837L767.986 116.235L771.577 117.275C771.577 117.275 771.731 143.059 769.016 159.486C766.301 175.914 757.796 177.91 753.077 178.062C748.344 178.215 744.223 174.902 744.223 174.902" stroke="#30276B" stroke-width="0.371315" stroke-linecap="round" stroke-linejoin="round"/>
<path fill-rule="evenodd" clip-rule="evenodd" d="M772.022 200.298L803.289 210.043L849.394 187.988L856.981 159.459L859.055 150.934L856.243 149.298L852.471 150.934C843.283 154.815 812.323 168.29 812.323 168.29L810.416 169.204C810.012 171.353 809.4 173.322 808.759 175.248L807.047 182.79L806.393 183.109L772.022 200.298Z" fill="white"/>
<path d="M803.817 207.867L813.019 170.577L857.204 151.668" stroke="#725DFF" stroke-width="0.371315" stroke-linecap="round" stroke-linejoin="round"/>
<path d="M806.615 184.328L801.659 205.621" stroke="#30276B" stroke-width="0.371315" stroke-linecap="round" stroke-linejoin="round"/>
<path d="M795.521 191.925L806.17 186.242" stroke="#30276B" stroke-width="0.371315" stroke-linecap="round" stroke-linejoin="round"/>
<path d="M800.616 203.431L796.927 202.281L800.463 200.174" stroke="#30276B" stroke-width="0.371315" stroke-linecap="round" stroke-linejoin="round"/>
<path d="M795.381 201.906L792.179 201.033L796.133 198.898" stroke="#30276B" stroke-width="0.371315" stroke-linecap="round" stroke-linejoin="round"/>
<path d="M790.523 200.576L787.656 199.688L791.776 197.609" stroke="#30276B" stroke-width="0.371315" stroke-linecap="round" stroke-linejoin="round"/>
<path d="M801.005 198.829L797.817 197.942L801.757 195.821" stroke="#30276B" stroke-width="0.371315" stroke-linecap="round" stroke-linejoin="round"/>
<path d="M796.161 197.498L793.279 196.611L797.4 194.518" stroke="#30276B" stroke-width="0.371315" stroke-linecap="round" stroke-linejoin="round"/>
<path d="M802.244 194.158L799.362 193.284L803.483 191.191" stroke="#30276B" stroke-width="0.371315" stroke-linecap="round" stroke-linejoin="round"/>
<path fill-rule="evenodd" clip-rule="evenodd" d="M67.5642 172C67.5642 172 75.2501 193.795 77.4973 202.222C79.7444 210.649 81.8123 219.327 81.8123 219.327L54.356 225.004L37 192.033L67.5642 172Z" fill="#5142B5"/>
<path fill-rule="evenodd" clip-rule="evenodd" d="M70.5047 173.559L69.2615 174.274L68.8312 173.06L37 192.033L52.8021 236.051L84.9321 220.981L73.3615 183.51C73.9113 183.094 74.3536 182.749 74.3536 182.749L72.1303 174.286L70.8872 174.881L70.5047 173.559Z" fill="white"/>
<path fill-rule="evenodd" clip-rule="evenodd" d="M52.8021 236.05C53.3997 236.312 87 221.529 87 221.529L74.0667 175.178C74.0667 175.178 47.1482 186.867 37 192.033L52.8021 236.05Z" fill="#5142B5"/>
<path fill-rule="evenodd" clip-rule="evenodd" d="M44.949 194.996L48.6545 206.173C48.6545 206.173 63.4644 201.4 67.66 199.817C71.8436 198.222 73.6963 197.318 73.6963 197.318L69.9908 184.807C69.9908 184.807 54.0095 191.08 44.949 194.996Z" fill="white"/>
<path d="M37 192.033L52.8021 236.051L75.1544 226.707" stroke="#30276B" stroke-width="0.306514" stroke-linecap="round" stroke-linejoin="round"/>
<path d="M72.5367 175.845L72.1303 174.286L70.8871 174.881L70.5046 173.559L69.2615 174.274L68.8312 173.06L66.9307 174.19L37 192.033" stroke="#30276B" stroke-width="0.306514" stroke-linecap="round" stroke-linejoin="round"/>
<path fill-rule="evenodd" clip-rule="evenodd" d="M721.177 23.5987C721.177 23.5987 723.642 18.3556 726.209 17.0876C728.79 15.7967 731.558 18.4386 730.959 21.0162C730.355 23.5757 726.226 27.1376 726.226 27.1376L721.177 23.5987Z" fill="#30276B"/>
<path fill-rule="evenodd" clip-rule="evenodd" d="M699.107 54.0485L696.443 58.7648L697.011 59.0184L701.053 55.6346L699.107 54.0485Z" fill="#30276B"/>
<path fill-rule="evenodd" clip-rule="evenodd" d="M720.45 22.5367C720.45 22.5367 722.3 22.0409 725.039 23.5692C727.783 25.1155 727.948 27.0242 727.948 27.0242L701.058 56.4458L698.208 54.5026L720.45 22.5367Z" fill="#BEB4FF"/>
<path d="M727.434 26.2531C727.434 26.2531 731.317 27.1654 731.174 30.0075C731.093 31.5758 728.897 32.6478 726.458 33.8232C724.414 34.8158 722.186 35.9154 721.212 37.2398C720.045 38.848 722.206 38.2884 722.206 38.2884L722.517 39.52C722.499 39.5248 716.938 40.9761 720.184 36.4906C721.356 34.9005 723.74 33.7395 725.919 32.6723C728 31.6701 729.869 30.7437 729.905 29.9415C729.991 28.1783 727.131 27.4944 727.126 27.4763L727.434 26.2531Z" fill="#30276B"/>
<path d="M709.862 41.9437L706.94 45.6269M721.421 27.3805L712.55 38.536L721.421 27.3805Z" stroke="white" stroke-width="0.478923" stroke-linecap="round" stroke-linejoin="round"/>
<circle cx="112" cy="89" r="74.5" stroke="#8E7DFF" stroke-dasharray="6 6"/>
<circle cx="609" cy="225" r="46.6867" stroke="#8E7DFF" stroke-width="0.626667" stroke-dasharray="3.76 3.76"/>
<path d="M1 137C41.0183 130.967 44.5558 88.738 57.6004 111.864C70.645 134.989 110 92.4247 110 130.967" stroke="#D2E924" stroke-width="2"/>
</svg>
