<svg width="977" height="201" viewBox="0 0 977 201" fill="none" xmlns="http://www.w3.org/2000/svg">
<path d="M73.9351 200.966C58.3976 200.966 45.2 197.877 34.3424 191.699C23.4848 185.522 15.1544 176.817 9.35116 165.585C3.54796 154.166 0.646358 140.874 0.646358 125.711C0.646358 110.361 3.64156 96.976 9.63196 85.5568C15.6224 73.9504 24.0464 64.8712 34.904 58.3192C45.9488 51.7672 58.9592 48.4912 73.9351 48.4912C85.1671 48.4912 94.9951 50.3632 103.419 54.1072C112.03 57.8512 119.238 63.0928 125.041 69.832C131.031 76.5712 135.43 84.4336 138.238 93.4192C141.234 102.218 142.638 111.765 142.45 122.061C142.45 124.682 142.357 127.209 142.17 129.642C141.982 132.076 141.608 134.51 141.046 136.943H39.6776C40.2392 142.559 41.8304 147.707 44.4512 152.387C47.072 157.067 50.7224 160.811 55.4024 163.619C60.2696 166.24 66.26 167.55 73.3735 167.55C78.0535 167.55 82.3591 167.082 86.2903 166.146C90.2216 165.023 93.5912 163.338 96.3991 161.092C99.2072 158.846 101.173 156.225 102.296 153.23H141.046C138.613 164.274 134.026 173.354 127.287 180.467C120.735 187.581 112.779 192.822 103.419 196.192C94.0591 199.374 84.2311 200.966 73.9351 200.966ZM40.52 109.425H104.823C104.636 104.37 103.326 99.6904 100.892 95.3848C98.6455 90.892 95.1823 87.3352 90.5023 84.7144C86.0096 81.9064 80.2064 80.5024 73.0928 80.5024C65.9792 80.5024 59.9888 81.9064 55.1216 84.7144C50.4416 87.5224 46.8848 91.1728 44.4512 95.6656C42.2048 99.9712 40.8944 104.558 40.52 109.425ZM228.711 200.966C213.735 200.966 201.286 197.596 191.364 190.857C181.63 183.93 174.329 174.758 169.462 163.338C164.595 151.732 162.161 138.909 162.161 124.869C162.161 110.08 164.782 96.976 170.024 85.5568C175.265 73.9504 183.034 64.8712 193.33 58.3192C203.626 51.7672 216.449 48.4912 231.8 48.4912C237.041 48.4912 242.189 49.1464 247.244 50.4568C252.485 51.58 257.259 53.3584 261.564 55.792C266.057 58.0384 269.895 61.0336 273.077 64.7776V0.193629H312.389V199H274.2L273.639 182.433C270.269 186.738 266.151 190.295 261.284 193.103C256.604 195.724 251.549 197.69 246.12 199C240.692 200.31 234.888 200.966 228.711 200.966ZM236.573 165.585C244.997 165.585 251.83 163.619 257.072 159.688C262.5 155.757 266.525 150.702 269.146 144.525C271.767 138.347 273.077 131.702 273.077 124.588C273.077 117.287 271.767 110.642 269.146 104.651C266.712 98.4736 262.781 93.6064 257.352 90.0496C252.111 86.3056 245.184 84.4336 236.573 84.4336C227.962 84.4336 221.036 86.3992 215.794 90.3304C210.552 94.2616 206.808 99.4096 204.562 105.774C202.503 111.952 201.473 118.598 201.473 125.711C201.473 130.953 202.035 136.007 203.158 140.874C204.468 145.554 206.528 149.766 209.336 153.51C212.144 157.254 215.794 160.25 220.287 162.496C224.78 164.555 230.208 165.585 236.573 165.585ZM410.388 200.966C388.673 200.966 371.919 195.443 360.125 184.398C348.519 173.166 342.716 156.318 342.716 133.854V51.0184H382.028V131.046C382.028 137.786 382.964 143.776 384.836 149.018C386.895 154.072 389.984 158.097 394.102 161.092C398.408 164.087 403.93 165.585 410.669 165.585C417.97 165.585 423.586 163.994 427.517 160.811C431.448 157.629 434.163 153.417 435.66 148.175C437.158 142.746 437.907 137.037 437.907 131.046V51.0184H476.938V133.854C476.938 157.254 471.041 174.29 459.248 184.96C447.641 195.63 431.355 200.966 410.388 200.966ZM507.534 199V51.0184H544.319L546.285 68.1472C550.403 63.0928 555.083 59.1616 560.325 56.3536C565.753 53.3584 571.182 51.2992 576.611 50.176C582.227 49.0528 587.281 48.4912 591.774 48.4912C606.001 48.4912 617.046 51.58 624.909 57.7576C632.958 63.9352 638.668 72.2656 642.037 82.7488C645.594 93.0448 647.373 104.558 647.373 117.287V199H608.061V122.342C608.061 117.849 607.686 113.356 606.937 108.863C606.189 104.37 604.785 100.252 602.725 96.508C600.853 92.764 598.139 89.7688 594.582 87.5224C591.025 85.276 586.345 84.1528 580.542 84.1528C573.054 84.1528 566.783 86.0248 561.729 89.7688C556.674 93.5128 552.93 98.5672 550.497 104.932C548.063 111.297 546.846 118.317 546.846 125.992V199H507.534ZM745.223 200.966C729.685 200.966 716.487 197.877 705.63 191.699C694.772 185.522 686.442 176.817 680.639 165.585C674.835 154.166 671.934 140.874 671.934 125.711C671.934 110.361 674.929 96.976 680.919 85.5568C686.91 73.9504 695.334 64.8712 706.191 58.3192C717.236 51.7672 730.247 48.4912 745.223 48.4912C756.455 48.4912 766.283 50.3632 774.707 54.1072C783.318 57.8512 790.525 63.0928 796.328 69.832C802.319 76.5712 806.718 84.4336 809.526 93.4192C812.521 102.218 813.925 111.765 813.738 122.061C813.738 124.682 813.644 127.209 813.457 129.642C813.27 132.076 812.895 134.51 812.334 136.943H710.965C711.527 142.559 713.118 147.707 715.739 152.387C718.359 157.067 722.01 160.811 726.69 163.619C731.557 166.24 737.547 167.55 744.661 167.55C749.341 167.55 753.647 167.082 757.578 166.146C761.509 165.023 764.879 163.338 767.687 161.092C770.495 158.846 772.46 156.225 773.583 153.23H812.334C809.9 164.274 805.314 173.354 798.575 180.467C792.023 187.581 784.067 192.822 774.707 196.192C765.347 199.374 755.519 200.966 745.223 200.966ZM711.807 109.425H776.111C775.923 104.37 774.613 99.6904 772.179 95.3848C769.933 90.892 766.47 87.3352 761.79 84.7144C757.297 81.9064 751.494 80.5024 744.38 80.5024C737.267 80.5024 731.276 81.9064 726.409 84.7144C721.729 87.5224 718.172 91.1728 715.739 95.6656C713.492 99.9712 712.182 104.558 711.807 109.425ZM822.563 199L874.23 123.465L825.09 51.0184H870.861L900.064 97.6312L928.706 51.0184H973.072L923.651 124.307L976.442 199H930.671L898.379 150.422L866.368 199H822.563Z" fill="#2D284E"/>
</svg>
