<svg width="44" height="44" viewBox="0 0 44 44" fill="none" xmlns="http://www.w3.org/2000/svg">
<rect width="44" height="44" rx="22" fill="#725DFF"/>
<path d="M22.0751 35.9996C28.0408 35.9996 33.135 32.2683 35.1511 27.0122L32.3403 25.4985C30.8849 29.7696 26.8388 32.8417 22.0751 32.8417C16.0872 32.8417 11.233 27.9876 11.233 21.9996C11.233 21.6085 11.2538 21.2222 11.2941 20.8417H8.12234C8.09108 21.2236 8.07514 21.6097 8.07514 21.9996C8.07514 29.7316 14.3432 35.9996 22.0751 35.9996Z" fill="white"/>
<path d="M8.12234 20.8417H11.2941C11.4206 19.6508 11.7399 18.5173 12.2202 17.4733H8.82301C8.45753 18.5436 8.21808 19.6723 8.12234 20.8417Z" fill="white"/>
<path d="M5.54883 17.4733V20.8417H8.12234C8.21808 19.6723 8.45753 18.5436 8.82301 17.4733H5.54883Z" fill="white"/>
<path d="M17.5488 24.3154C17.5488 25.42 16.6534 26.3154 15.5488 26.3154C14.4443 26.3154 13.5488 25.42 13.5488 24.3154C13.5488 23.2109 14.4443 22.3154 15.5488 22.3154C16.6534 22.3154 17.5488 23.2109 17.5488 24.3154Z" fill="white" fill-opacity="0.5"/>
<path d="M30.812 24.3154C30.812 25.42 29.9166 26.3154 28.812 26.3154C27.7074 26.3154 26.812 25.42 26.812 24.3154C26.812 23.2109 27.7074 22.3154 28.812 22.3154C29.9166 22.3154 30.812 23.2109 30.812 24.3154Z" fill="white" fill-opacity="0.5"/>
<path d="M12.2202 17.4733C11.7399 18.5173 11.4206 19.6508 11.2941 20.8417H15.6603C16.4826 20.8417 17.2713 21.1684 17.8527 21.7499L22.1531 26.0502L26.4534 21.7499C27.0348 21.1684 27.8235 20.8417 28.6458 20.8417H32.8561C32.7297 19.6508 32.4104 18.5173 31.9301 17.4733H28.4493C27.0788 17.4733 25.7644 18.0177 24.7954 18.9868L22.1531 21.6291L19.3123 19.0762C18.4598 18.3101 17.3769 17.8492 16.2339 17.7659L12.2202 17.4733Z" fill="white"/>
<path d="M35.3273 17.4733C33.4456 11.9626 28.2232 7.99963 22.0751 7.99963C15.9271 7.99963 10.7047 11.9626 8.82301 17.4733H12.2202C13.8305 13.9729 17.251 11.4774 21.2824 11.1861C21.5442 11.1672 21.8085 11.1575 22.0751 11.1575C22.3994 11.1575 22.7203 11.1718 23.0373 11.1996C26.9949 11.5476 30.3424 14.022 31.9301 17.4733H35.3273Z" fill="white"/>
<path d="M35.3273 17.4733H31.9301C32.4104 18.5173 32.7297 19.6508 32.8561 20.8417H36.0279C36.0279 20.8417 35.6928 18.5436 35.3273 17.4733Z" fill="white"/>
<path d="M38.812 20.8417V17.4733H35.3273C35.6928 18.5436 36.0279 20.8417 36.0279 20.8417H38.812Z" fill="white"/>
</svg>
