<svg width="164" height="43" viewBox="0 0 164 43" fill="none" xmlns="http://www.w3.org/2000/svg">
<rect width="43" height="43" rx="6.25455" fill="#725DFF"/>
<path d="M21.5734 35.1817C27.4035 35.1817 32.3818 31.5352 34.3522 26.3985L31.6052 24.9192C30.1829 29.0933 26.2288 32.0956 21.5734 32.0956C15.7215 32.0956 10.9777 27.3518 10.9777 21.4999C10.9777 21.1177 10.9979 20.7401 11.0374 20.3684H7.93769C7.90714 20.7415 7.89157 21.1189 7.89157 21.4999C7.89157 29.0562 14.0171 35.1817 21.5734 35.1817Z" fill="white"/>
<path d="M7.93769 20.3684H11.0374C11.161 19.2044 11.473 18.0968 11.9424 17.0765H8.62243C8.26527 18.1225 8.03126 19.2255 7.93769 20.3684Z" fill="white"/>
<path d="M5.42267 17.0765V20.3684H7.93769C8.03126 19.2255 8.26527 18.1225 8.62243 17.0765H5.42267Z" fill="white"/>
<path d="M17.1499 23.7631C17.1499 24.8426 16.2749 25.7176 15.1954 25.7176C14.1159 25.7176 13.2408 24.8426 13.2408 23.7631C13.2408 22.6836 14.1159 21.8085 15.1954 21.8085C16.2749 21.8085 17.1499 22.6836 17.1499 23.7631Z" fill="white" fill-opacity="0.3"/>
<path d="M30.1117 23.7631C30.1117 24.8426 29.2366 25.7176 28.1571 25.7176C27.0777 25.7176 26.2026 24.8426 26.2026 23.7631C26.2026 22.6836 27.0777 21.8085 28.1571 21.8085C29.2366 21.8085 30.1117 22.6836 30.1117 23.7631Z" fill="white" fill-opacity="0.3"/>
<path d="M11.9424 17.0765C11.473 18.0968 11.161 19.2044 11.0374 20.3684H15.0255C16.0077 20.3684 16.9496 20.7585 17.6441 21.453L21.6495 25.4584L25.6549 21.453C26.3494 20.7585 27.2914 20.3684 28.2736 20.3684H32.1094C31.9858 19.2044 31.6738 18.0968 31.2044 17.0765H28.2675C26.6305 17.0765 25.0606 17.7268 23.9031 18.8843L21.6495 21.1379L19.1589 18.8996C18.1407 17.9845 16.8472 17.434 15.4819 17.3345L11.9424 17.0765Z" fill="white"/>
<path d="M34.5243 17.0765C32.6854 11.691 27.5817 7.81812 21.5734 7.81812C15.5651 7.81812 10.4614 11.691 8.62243 17.0765H11.9424C13.5162 13.6556 16.8589 11.2168 20.7987 10.9321C21.0545 10.9136 21.3128 10.9042 21.5734 10.9042C21.8902 10.9042 22.2039 10.9181 22.5136 10.9454C26.3813 11.2855 29.6527 13.7036 31.2044 17.0765H34.5243Z" fill="white"/>
<path d="M34.5243 17.0765H31.2044C31.6738 18.0968 31.9858 19.2044 32.1094 20.3684H35.2091C35.2091 20.3684 34.8815 18.1225 34.5243 17.0765Z" fill="white"/>
<path d="M37.9298 20.3684V17.0765H34.5243C34.8815 18.1225 35.2091 20.3684 35.2091 20.3684H37.9298Z" fill="white"/>
<path d="M63.5006 30.2167C61.7875 30.2167 60.3323 29.8762 59.1352 29.195C57.9381 28.5139 57.0196 27.5542 56.3798 26.3158C55.7399 25.0567 55.42 23.5913 55.42 21.9194C55.42 20.227 55.7503 18.7512 56.4107 17.4922C57.0712 16.2125 58 15.2114 59.1971 14.489C60.4149 13.7666 61.8494 13.4054 63.5006 13.4054C64.739 13.4054 65.8226 13.6118 66.7514 14.0246C67.7008 14.4374 68.4955 15.0154 69.1353 15.7584C69.7958 16.5014 70.2808 17.3683 70.5904 18.359C70.9207 19.3291 71.0755 20.3818 71.0548 21.517C71.0548 21.8059 71.0445 22.0846 71.0239 22.3529C71.0032 22.6212 70.9619 22.8895 70.9 23.1578H59.7235C59.7854 23.777 59.9608 24.3446 60.2498 24.8606C60.5387 25.3766 60.9412 25.7894 61.4572 26.099C61.9939 26.388 62.6543 26.5325 63.4387 26.5325C63.9547 26.5325 64.4294 26.4809 64.8628 26.3777C65.2963 26.2538 65.6678 26.0681 65.9774 25.8204C66.287 25.5727 66.5037 25.2838 66.6275 24.9535H70.9C70.6317 26.1713 70.126 27.1723 69.383 27.9566C68.6606 28.741 67.7834 29.3189 66.7514 29.6904C65.7194 30.0413 64.6358 30.2167 63.5006 30.2167ZM59.8163 20.1238H66.9062C66.8855 19.5665 66.7411 19.0505 66.4727 18.5758C66.2251 18.0804 65.8432 17.6882 65.3272 17.3993C64.8319 17.0897 64.192 16.9349 63.4077 16.9349C62.6234 16.9349 61.9629 17.0897 61.4263 17.3993C60.9103 17.7089 60.5181 18.1114 60.2498 18.6067C60.0021 19.0814 59.8576 19.5871 59.8163 20.1238ZM80.5656 30.2167C78.9144 30.2167 77.5418 29.8452 76.4479 29.1022C75.3746 28.3385 74.5697 27.3271 74.033 26.0681C73.4964 24.7884 73.2281 23.3746 73.2281 21.8266C73.2281 20.196 73.517 18.7512 74.095 17.4922C74.6729 16.2125 75.5294 15.2114 76.6646 14.489C77.7998 13.7666 79.2137 13.4054 80.9062 13.4054C81.4841 13.4054 82.0517 13.4777 82.609 13.6222C83.1869 13.746 83.7132 13.9421 84.1879 14.2104C84.6833 14.4581 85.1064 14.7883 85.4573 15.2011V8.08032H89.7917V30H85.5811L85.5192 28.1734C85.1477 28.6481 84.6936 29.0402 84.1569 29.3498C83.6409 29.6388 83.0837 29.8555 82.4851 30C81.8865 30.1445 81.2467 30.2167 80.5656 30.2167ZM81.4325 26.3158C82.3613 26.3158 83.1146 26.099 83.6925 25.6656C84.2911 25.2322 84.7349 24.6749 85.0238 23.9938C85.3128 23.3126 85.4573 22.5799 85.4573 21.7956C85.4573 20.9906 85.3128 20.2579 85.0238 19.5974C84.7555 18.9163 84.3221 18.3797 83.7235 17.9875C83.1456 17.5747 82.3819 17.3683 81.4325 17.3683C80.483 17.3683 79.7193 17.585 79.1414 18.0185C78.5635 18.4519 78.1507 19.0195 77.903 19.7213C77.676 20.4024 77.5625 21.1351 77.5625 21.9194C77.5625 22.4974 77.6244 23.0546 77.7482 23.5913C77.8927 24.1073 78.1197 24.5717 78.4293 24.9845C78.7389 25.3973 79.1414 25.7275 79.6368 25.9752C80.1321 26.2022 80.7307 26.3158 81.4325 26.3158ZM100.597 30.2167C98.2025 30.2167 96.3552 29.6078 95.0549 28.3901C93.7752 27.1517 93.1353 25.2941 93.1353 22.8173V13.6841H97.4697V22.5077C97.4697 23.2507 97.5729 23.9112 97.7793 24.4891C98.0064 25.0464 98.3469 25.4902 98.801 25.8204C99.2757 26.1506 99.8846 26.3158 100.628 26.3158C101.433 26.3158 102.052 26.1403 102.485 25.7894C102.919 25.4386 103.218 24.9742 103.383 24.3962C103.548 23.7977 103.631 23.1682 103.631 22.5077V13.6841H107.934V22.8173C107.934 25.3973 107.284 27.2755 105.984 28.452C104.704 29.6285 102.908 30.2167 100.597 30.2167ZM111.308 30V13.6841H115.363L115.58 15.5726C116.034 15.0154 116.55 14.5819 117.128 14.2723C117.727 13.9421 118.325 13.715 118.924 13.5912C119.543 13.4674 120.1 13.4054 120.596 13.4054C122.164 13.4054 123.382 13.746 124.249 14.4271C125.136 15.1082 125.766 16.0267 126.137 17.1826C126.53 18.3178 126.726 19.5871 126.726 20.9906V30H122.391V21.5479C122.391 21.0526 122.35 20.5572 122.267 20.0618C122.185 19.5665 122.03 19.1124 121.803 18.6996C121.597 18.2868 121.297 17.9566 120.905 17.7089C120.513 17.4612 119.997 17.3374 119.357 17.3374C118.532 17.3374 117.84 17.5438 117.283 17.9566C116.726 18.3694 116.313 18.9266 116.045 19.6284C115.776 20.3302 115.642 21.1042 115.642 21.9504V30H111.308ZM137.514 30.2167C135.801 30.2167 134.346 29.8762 133.149 29.195C131.952 28.5139 131.033 27.5542 130.394 26.3158C129.754 25.0567 129.434 23.5913 129.434 21.9194C129.434 20.227 129.764 18.7512 130.424 17.4922C131.085 16.2125 132.014 15.2114 133.211 14.489C134.429 13.7666 135.863 13.4054 137.514 13.4054C138.753 13.4054 139.836 13.6118 140.765 14.0246C141.715 14.4374 142.509 15.0154 143.149 15.7584C143.81 16.5014 144.295 17.3683 144.604 18.359C144.934 19.3291 145.089 20.3818 145.069 21.517C145.069 21.8059 145.058 22.0846 145.038 22.3529C145.017 22.6212 144.976 22.8895 144.914 23.1578H133.737C133.799 23.777 133.975 24.3446 134.264 24.8606C134.552 25.3766 134.955 25.7894 135.471 26.099C136.008 26.388 136.668 26.5325 137.452 26.5325C137.968 26.5325 138.443 26.4809 138.877 26.3777C139.31 26.2538 139.682 26.0681 139.991 25.8204C140.301 25.5727 140.517 25.2838 140.641 24.9535H144.914C144.645 26.1713 144.14 27.1723 143.397 27.9566C142.674 28.741 141.797 29.3189 140.765 29.6904C139.733 30.0413 138.65 30.2167 137.514 30.2167ZM133.83 20.1238H140.92C140.899 19.5665 140.755 19.0505 140.486 18.5758C140.239 18.0804 139.857 17.6882 139.341 17.3993C138.846 17.0897 138.206 16.9349 137.421 16.9349C136.637 16.9349 135.977 17.0897 135.44 17.3993C134.924 17.7089 134.532 18.1114 134.264 18.6067C134.016 19.0814 133.871 19.5871 133.83 20.1238ZM146.042 30L151.738 21.6718L146.32 13.6841H151.367L154.587 18.8234L157.745 13.6841H162.636L157.187 21.7646L163.008 30H157.961L154.401 24.6439L150.871 30H146.042Z" fill="#2D284E"/>
</svg>
