<svg width="770" height="770" viewBox="0 0 770 770" fill="none" xmlns="http://www.w3.org/2000/svg">
<rect width="770" height="770" rx="112" fill="#725DFF"/>
<path d="M386.315 630C490.714 630 579.862 564.702 615.144 472.719L565.955 446.229C540.486 520.974 469.679 574.737 386.315 574.737C281.526 574.737 196.578 489.789 196.578 385C196.578 378.155 196.941 371.394 197.647 364.737H142.141C141.594 371.419 141.315 378.177 141.315 385C141.315 520.31 251.005 630 386.315 630Z" fill="white"/>
<path d="M142.141 364.737H197.647C199.86 343.895 205.448 324.06 213.853 305.789H154.403C148.007 324.52 143.816 344.272 142.141 364.737Z" fill="white"/>
<path d="M97.1045 305.789V364.737H142.141C143.816 344.272 148.007 324.52 154.403 305.789H97.1045Z" fill="white"/>
<path d="M307.104 425.526C307.104 444.856 291.434 460.526 272.104 460.526C252.775 460.526 237.104 444.856 237.104 425.526C237.104 406.196 252.775 390.526 272.104 390.526C291.434 390.526 307.104 406.196 307.104 425.526Z" fill="white" fill-opacity="0.4"/>
<path d="M539.21 425.526C539.21 444.856 523.54 460.526 504.21 460.526C484.88 460.526 469.21 444.856 469.21 425.526C469.21 406.196 484.88 390.526 504.21 390.526C523.54 390.526 539.21 406.196 539.21 425.526Z" fill="white" fill-opacity="0.4"/>
<path d="M213.853 305.789C205.448 324.06 199.86 343.895 197.647 364.737H269.062C286.65 364.737 303.517 371.724 315.954 384.16L387.678 455.885L459.403 384.16C471.839 371.724 488.707 364.737 506.295 364.737H574.983C572.77 343.894 567.182 324.06 558.777 305.789H506.187C476.873 305.789 448.76 317.434 428.033 338.162L387.678 378.516L343.079 338.436C324.846 322.05 301.684 312.191 277.235 310.409L213.853 305.789Z" fill="white"/>
<path d="M618.227 305.789C585.297 209.351 493.905 140 386.315 140C278.725 140 187.333 209.351 154.403 305.789H213.853C242.034 244.532 301.893 200.861 372.442 195.763C377.023 195.432 381.649 195.263 386.315 195.263C391.989 195.263 397.605 195.512 403.152 196C472.411 202.09 530.991 245.392 558.777 305.789H618.227Z" fill="white"/>
<path d="M618.227 305.789H558.777C567.182 324.06 572.77 343.894 574.983 364.737H630.489C630.489 364.737 624.623 324.52 618.227 305.789Z" fill="white"/>
<path d="M679.21 364.737V305.789H618.227C624.623 324.52 630.489 364.737 630.489 364.737H679.21Z" fill="white"/>
</svg>
