<svg width="24" height="24" viewBox="0 0 24 24" fill="none" xmlns="http://www.w3.org/2000/svg">
<path fill-rule="evenodd" clip-rule="evenodd" d="M16.8649 11C16.8649 14.2391 14.2391 16.8649 11 16.8649C7.76092 16.8649 5.13513 14.2391 5.13513 11C5.13513 7.76092 7.76092 5.13513 11 5.13513C14.2391 5.13513 16.8649 7.76092 16.8649 11ZM11 18C14.866 18 18 14.866 18 11C18 7.13401 14.866 4 11 4C7.13401 4 4 7.13401 4 11C4 14.866 7.13401 18 11 18ZM19.5588 19.5588C18.9706 20.1471 18.0169 20.1471 17.4287 19.5588L16 18.1301C16.8316 17.5541 17.5541 16.8316 18.1301 16L19.5588 17.4287C20.1471 18.0169 20.1471 18.9706 19.5588 19.5588Z" fill="#725DFF"/>
</svg>
